<svg height='100px' width='100px'  fill="#646464" xmlns="http://www.w3.org/2000/svg" xmlns:xlink="http://www.w3.org/1999/xlink" version="1.1" x="0px" y="0px" viewBox="0 0 512 512" enable-background="new 0 0 512 512" xml:space="preserve"><path d="M330,248.6c29.8-34.8,48.4-85.4,48.4-123.7C378.4,57.1,323.3,2,255.5,2S132.6,57.1,132.6,124.9c0,38.3,18.6,88.9,48.4,123.7  C0.7,309.2,19.6,476,27.5,510l456,0C510.4,393.5,439.2,280.5,330,248.6z M255.5,18.4c43.1,0,80.2,25.7,96.9,62.6  c-40.9,27.9-82.4-3.6-82.4-3.6c-29-16.9-65.4-15.3-92.8,3.9l-24.8,17.4C164.1,52.7,205.8,18.4,255.5,18.4z M149.2,121l37.4-26.3  c22.2-15.6,51.7-16.8,75.1-3.2c0,0,45.7,35,96.4,5.3c2.4,8.9,3.9,18.3,3.9,28c0,58.2-47.7,147.5-106.5,147.5S149,183.1,149,124.9  C149,123.6,149.1,122.3,149.2,121z M469.9,493.6l-428.7,0c-12.4-76.9,19.1-150.8,77.1-195.3c3.5,23,10.3,45.1,20.4,66.1  c-25.3,15.9-37.2,47.8-26.9,77.1l13.6,38.6l30.9-10.9l-5.4-15.5l-15.5,5.4l-8.2-23.2c-9-25.6,4.5-53.7,30.1-62.7  c25.5-9,53.7,4.5,62.7,30.1l8.1,23.2l-15.5,5.4l5.4,15.5l30.9-10.9l-13.6-38.7c-11.8-33.6-48.3-51.5-81.9-40.6  c-10.6-22-17.4-45.4-20.1-69.7c18.2-11.5,38.6-20.3,60.7-25.8c17.9,16.3,38.7,26.7,61.4,26.7c22.7,0,43.5-10.4,61.4-26.7  c25.8,6.4,49.3,17.3,69.7,31.9c-4.8,21.8-12.8,42.5-24,61.7c-2.8-0.8-5.7-1.4-8.8-1.4c-18.1,0-32.8,14.7-32.8,32.8  s14.7,32.8,32.8,32.8c18.1,0,32.8-14.7,32.8-32.8c0-9.1-3.7-17.3-9.8-23.3c10.7-18.5,18.7-38.1,24-58.8  C453.6,350.1,481.6,420.6,469.9,493.6z M370.2,387.1c0,9-7.4,16.4-16.4,16.4c-9,0-16.4-7.3-16.4-16.4s7.4-16.4,16.4-16.4  C362.9,370.7,370.2,378.1,370.2,387.1z"></path></svg>