<svg xmlns="http://www.w3.org/2000/svg" width="246.351" height="148.055" viewBox="0 0 246.351 148.055">
  <g id="Group_4647" data-name="Group 4647" transform="translate(3655 330)">
    <path id="ic_videocam_24px" d="M175.731,61.521V18.338A12.374,12.374,0,0,0,163.393,6H15.338A12.374,12.374,0,0,0,3,18.338V141.717a12.374,12.374,0,0,0,12.338,12.338H163.393a12.374,12.374,0,0,0,12.338-12.338V98.534l73.62,43.183V14.84Z" transform="translate(-3658 -336)" fill="#147afc"/>
    <g id="Path_2108" data-name="Path 2108" transform="translate(-3482.269 -279.817)" fill="#fff">
      <path d="M 7.725281238555908 46.3331413269043 L 0.5000013113021851 42.11898040771484 L 0.5000013113021851 5.604683876037598 L 7.725281238555908 1.024055957794189 L 7.725281238555908 46.3331413269043 Z" stroke="none"/>
      <path d="M 7.225281238555908 1.933059692382812 L 1.000001430511475 5.879714965820312 L 1.000001430511475 41.83177185058594 L 7.225281238555908 45.46267700195312 L 7.225281238555908 1.933059692382812 M 8.225281715393066 0.11505126953125 L 8.225281715393066 47.20359420776367 L 9.5367431640625e-07 42.40618133544922 L 9.5367431640625e-07 5.32965087890625 L 8.225281715393066 0.11505126953125 Z" stroke="none" fill="#fff"/>
    </g>
  </g>
</svg>
